<svg width="200" height="34" viewBox="0 0 200 34" fill="none" xmlns="http://www.w3.org/2000/svg">
<path d="M2.43298 27.5185V6.55725H9.28573C11.5604 6.55725 13.2688 7.02752 14.4109 7.96806C15.5626 8.90865 16.1385 10.3003 16.1385 12.143C16.1385 13.122 15.8601 13.9906 15.3035 14.7488C14.7468 15.4974 13.9886 16.0781 13.0288 16.4908C14.1614 16.8075 15.0539 17.4122 15.7066 18.3048C16.3688 19.1878 16.6999 20.2435 16.6999 21.472C16.6999 23.3531 16.0904 24.8312 14.8716 25.9061C13.6527 26.981 11.9299 27.5185 9.70322 27.5185H2.43298ZM5.19713 17.7145V25.2583H9.76081C11.0469 25.2583 12.0594 24.9272 12.7985 24.2649C13.5471 23.5931 13.9214 22.6717 13.9214 21.5008C13.9214 18.9766 12.5489 17.7145 9.80401 17.7145H5.19713ZM5.19713 15.4974H9.37211C10.5814 15.4974 11.546 15.1951 12.2658 14.5905C12.9952 13.9858 13.3599 13.1652 13.3599 12.1286C13.3599 10.977 13.024 10.142 12.3522 9.62369C11.6803 9.09582 10.6582 8.83189 9.28573 8.83189H5.19713V15.4974ZM36.927 17.7145C36.927 19.7684 36.5815 21.5632 35.8904 23.0988C35.1994 24.6248 34.2205 25.791 32.9535 26.5971C31.6867 27.4033 30.2086 27.8064 28.5194 27.8064C26.8686 27.8064 25.405 27.4033 24.1285 26.5971C22.852 25.7813 21.8587 24.6248 21.1484 23.1276C20.4478 21.6207 20.0879 19.8788 20.0687 17.9017V16.39C20.0687 14.3745 20.419 12.5942 21.1196 11.0489C21.8203 9.50369 22.8088 8.32319 24.0853 7.50737C25.3714 6.68201 26.8398 6.26929 28.4906 6.26929C30.1702 6.26929 31.6483 6.6772 32.9248 7.49297C34.2108 8.29921 35.1994 9.47494 35.8904 11.0201C36.5815 12.5558 36.927 14.3457 36.927 16.39V17.7145ZM34.1773 16.3612C34.1773 13.8754 33.6782 11.9703 32.68 10.6458C31.6819 9.31174 30.2854 8.64472 28.4906 8.64472C26.7439 8.64472 25.3666 9.31174 24.3588 10.6458C23.3607 11.9703 22.8472 13.8131 22.8184 16.1741V17.7145C22.8184 20.1235 23.3223 22.0191 24.3301 23.4011C25.3474 24.7736 26.7439 25.4598 28.5194 25.4598C30.3046 25.4598 31.6867 24.812 32.6656 23.5163C33.6446 22.211 34.1485 20.3443 34.1773 17.9161V16.3612ZM57.197 17.7145C57.197 19.7684 56.8516 21.5632 56.1607 23.0988C55.4698 24.6248 54.4909 25.791 53.2241 26.5971C51.9567 27.4033 50.4791 27.8064 48.7897 27.8064C47.1389 27.8064 45.6753 27.4033 44.3988 26.5971C43.1223 25.7813 42.1289 24.6248 41.4187 23.1276C40.7181 21.6207 40.3582 19.8788 40.3389 17.9017V16.39C40.3389 14.3745 40.6893 12.5942 41.3899 11.0489C42.0905 9.50369 43.0791 8.32319 44.3556 7.50737C45.6417 6.68201 47.1101 6.26929 48.7609 6.26929C50.4403 6.26929 51.9184 6.6772 53.1951 7.49297C54.4811 8.29921 55.4698 9.47494 56.1607 11.0201C56.8516 12.5558 57.197 14.3457 57.197 16.39V17.7145ZM54.4476 16.3612C54.4476 13.8754 53.9484 11.9703 52.9503 10.6458C51.9523 9.31174 50.5558 8.64472 48.7609 8.64472C47.0141 8.64472 45.6369 9.31174 44.6291 10.6458C43.631 11.9703 43.1175 13.8131 43.0887 16.1741V17.7145C43.0887 20.1235 43.5926 22.0191 44.6003 23.4011C45.6177 24.7736 47.0141 25.4598 48.7897 25.4598C50.5749 25.4598 51.9567 24.812 52.9361 23.5163C53.915 22.211 54.4187 20.3443 54.4476 17.9161V16.3612ZM66.6702 17.7721L64.1076 20.4354V27.5185H61.3435V6.55725H64.1076V16.9227L73.4221 6.55725H76.7621L68.513 15.8142L77.4098 27.5185H74.0988L66.6702 17.7721ZM83.399 6.55725L90.2516 23.6602L97.1042 6.55725H100.689V27.5185H97.9248V19.3557L98.1843 10.5451L91.3027 27.5185H89.1862L82.3194 10.5883L82.5926 19.3557V27.5185H79.8285V6.55725H83.399Z" fill="black"/>
<path d="M134.445 19.0388H129.521V27.5184H126.743V6.55713H133.682C136.043 6.55713 137.857 7.09457 139.124 8.16951C140.4 9.24445 141.039 10.8089 141.039 12.8628C141.039 14.168 140.684 15.3054 139.973 16.2747C139.273 17.2441 138.294 17.9687 137.036 18.4486L141.96 27.3456V27.5184H138.995L134.445 19.0388ZM129.521 16.7786H133.769C135.141 16.7786 136.23 16.4235 137.036 15.7133C137.852 15.003 138.26 14.0529 138.26 12.8628C138.26 11.5671 137.871 10.5737 137.094 9.88268C136.326 9.19167 135.213 8.84136 133.754 8.83177H129.521V16.7786ZM150.253 17.772L147.69 20.4353V27.5184H144.926V6.55713H147.69V16.9226L157.004 6.55713H160.344L152.095 15.814L160.992 27.5184H157.681L150.253 17.772ZM175.259 17.8296H166.175V25.2582H176.728V27.5184H163.411V6.55713H176.584V8.83177H166.175V15.5693H175.259V17.8296ZM180.169 27.5184V6.55713H186.085C187.909 6.55713 189.521 6.96022 190.922 7.76642C192.324 8.57261 193.403 9.71954 194.162 11.2072C194.93 12.6948 195.318 14.4032 195.328 16.3323V17.6712C195.328 19.6483 194.944 21.3807 194.176 22.8683C193.418 24.356 192.329 25.4981 190.908 26.2947C189.497 27.0913 187.851 27.4992 185.97 27.5184H180.169ZM182.933 8.83177V25.2582H185.841C187.971 25.2582 189.627 24.5959 190.807 23.2714C191.998 21.947 192.593 20.061 192.593 17.6136V16.3899C192.593 14.0097 192.031 12.1621 190.908 10.8473C189.795 9.52278 188.211 8.85094 186.157 8.83177H182.933Z" fill="black"/>
<path d="M119.656 5.65112H107.371C106.02 5.65112 104.914 6.75677 104.914 8.10813V27.7641L113.514 24.0786L122.113 27.7641V8.10813C122.113 6.75677 121.007 5.65112 119.656 5.65112Z" fill="#0047FF" fill-opacity="0.54"/>
<path d="M113.268 9.82812L116.885 17.1991H109.651L113.268 9.82812Z" fill="black"/>
</svg>
