<?xml version="1.0" encoding="UTF-8" standalone="no"?>
<svg
   xmlns:dc="http://purl.org/dc/elements/1.1/"
   xmlns:cc="http://creativecommons.org/ns#"
   xmlns:rdf="http://www.w3.org/1999/02/22-rdf-syntax-ns#"
   xmlns:svg="http://www.w3.org/2000/svg"
   xmlns="http://www.w3.org/2000/svg"
   xmlns:sodipodi="http://sodipodi.sourceforge.net/DTD/sodipodi-0.dtd"
   xmlns:inkscape="http://www.inkscape.org/namespaces/inkscape"
   sodipodi:docname="drawing.svg"
   inkscape:version="1.0 (4035a4fb49, 2020-05-01)"
   id="svg110"
   version="1.1"
   viewBox="0 0 9.7510004 8.3760004"
   height="8.3760004mm"
   width="9.7510004mm">
  <defs
     id="defs104" />
  <sodipodi:namedview
     inkscape:window-maximized="0"
     inkscape:window-y="26"
     inkscape:window-x="26"
     inkscape:window-height="1198"
     inkscape:window-width="1375"
     inkscape:pagecheckerboard="true"
     showgrid="false"
     inkscape:document-rotation="0"
     inkscape:current-layer="layer1"
     inkscape:document-units="mm"
     inkscape:cy="18.498023"
     inkscape:cx="19.252811"
     inkscape:zoom="22.4"
     inkscape:pageshadow="2"
     inkscape:pageopacity="0.0"
     borderopacity="1.0"
     bordercolor="#666666"
     pagecolor="#ffffff"
     id="base" />
  <metadata
     id="metadata107">
    <rdf:RDF>
      <cc:Work
         rdf:about="">
        <dc:format>image/svg+xml</dc:format>
        <dc:type
           rdf:resource="http://purl.org/dc/dcmitype/StillImage" />
        <dc:title></dc:title>
      </cc:Work>
    </rdf:RDF>
  </metadata>
  <g
     id="layer1"
     inkscape:groupmode="layer"
     inkscape:label="Layer 1">
    <path
       style="stroke-width:0.264583"
       fill="#ffffff"
       d="m 2.4283333,3.7777082 c 0.714375,0 1.3229167,1.1377084 1.42875,2.936875 h 0.026458 c 0.1058337,-0.3704166 0.132292,-0.7408333 0.132292,-1.11125 0,-1.2964583 -0.6085416,-2.460625 -1.42875,-2.460625 -0.7672916,0 -0.8466666,0.635 -0.6614583,0.9260417 C 2.005,3.9629166 2.1372917,3.7777082 2.4283333,3.7777082 Z m 0.79375,3.2279167 c 0.026458,-0.15875 0.052917,-0.2910417 0.052917,-0.5291667 0,-0.8202083 -0.5027083,-2.143125 -1.42875,-2.143125 -0.714375,0 -0.8202084,0.6879167 -0.5820834,0.8995834 0.052917,-0.15875 0.2116667,-0.3439584 0.5027084,-0.3439584 0.7672917,0 1.3229167,1.190625 1.455208,2.1166667 z m 4.683125,-2.936875 c 0.079375,-0.1058333 0.1058334,-0.238125 0.1058334,-0.3175 0,-0.3175 -0.2910417,-0.6085417 -0.714375,-0.6085417 -1.2435417,0 -1.6933334,2.1695834 -1.349375,3.571875 h 0.026458 c 0.1322917,-1.905 0.7408333,-2.936875 1.42875,-2.936875 0.3439583,-0.026458 0.47625,0.2116667 0.5027086,0.2910417 z m 0.052917,0.2910417 c -1.1641667,0 -1.6139583,1.984375 -1.3758333,2.6458333 H 6.60875 C 6.7410417,6.0002082 7.2966667,4.8889582 8.0110417,4.8889582 c 0.396875,0 0.5027083,0.238125 0.5027083,0.3439584 0.2645833,-0.238125 0.1058333,-0.873125 -0.5556247,-0.873125 z m -2.8310417,3.33375 c -0.714375,0 -1.42875,0.15875 -2.0372916,0.5556251 v 0.02646 c 0.2910416,-0.05292 1.0054166,-0.132292 1.8785416,-0.132292 0.9525,0 1.2964584,0.132292 1.4552084,0.132292 0.1058333,0 0.15875,-0.05292 0.15875,-0.15875 0,-0.3175001 -0.6879167,-0.4233334 -1.4552084,-0.4233331 z m 0,-0.7408334 c -0.6085416,0 -1.42875,0.15875 -2.0372916,0.555625 v 0.026458 c 0.238125,-0.026458 1.031875,-0.1322917 1.905,-0.1322917 0.8202083,0 1.2964583,0.1322917 1.42875,0.1322917 0.1058333,0 0.15875,-0.052917 0.15875,-0.15875 0,-0.3175 -0.6879167,-0.4233334 -1.4552084,-0.423333 z m 2.778125,-4.7360416 c -0.079375,0.026458 -0.2116666,0.15875 -0.2116666,0.3439583 0,0.238125 0.15875,0.6879167 0.8202083,0.6879167 0.6879167,0 1.1377081,-0.5027084 1.1377081,-1.190625 0,-0.6879167 -0.5027081,-1.29645819 -1.5874998,-1.29645819 -1.2964583,0 -2.9633333,1.16416649 -2.9633333,3.96874979 0,0.5291667 0.052917,1.11125 0.1852083,1.74625 h 0.026458 c 0,-3.4395833 1.2964583,-5.08 2.69875,-5.08 0.6085416,0 0.9260416,0.3704167 0.9260416,0.7672917 0,0.3704167 -0.2116666,0.635 -0.555625,0.635 -0.396875,0 -0.5291666,-0.3439583 -0.4762496,-0.5820833 z M 1.84625,2.6399999 C 1.793333,2.7193749 1.6345833,2.8516666 1.37,2.8516666 c -0.3175001,0 -0.58208327,-0.2645834 -0.58208327,-0.635 0,-0.3439584 0.29104147,-0.6879167 0.82020827,-0.6879167 1.3229167,0 2.8839583,1.905 2.8839583,4.3127083 0,0.15875 0,0.4233334 -0.026458,0.635 h 0.026458 C 4.624375,6.0531249 4.7566667,5.4181249 4.7566667,4.9683332 4.7566667,2.8516666 3.3014583,0.81437501 1.608125,0.81437501 0.60270833,0.81437501 0.1,1.4758332 0.1,2.0843749 c 0,0.6614583 0.396875,1.1641667 1.0054166,1.1641667 0.4762501,0 0.7408334,-0.3439584 0.7408334,-0.6085417 z M 1.6610417,0.1 C 1.52875,0.1 1.449375,0.179375 1.449375,0.25875001 c 0,0.1322917 0.079375,0.1852084 0.238125,0.238125 0.47625,0.1852084 1.3758333,0.3175 2.38125,0.3175 1.7991667,0 3.65125,-0.2645833 4.445,-0.5820833 v -0.026458 C 7.8522917,0.25875071 6.7145833,0.33812531 4.8889583,0.33812531 2.401875,0.33812531 1.8991667,0.1000003 1.6610417,0.1 Z m 1.42875,0.9525 c 0.2116666,0.1058332 1.190625,0.5291666 1.6404166,2.1695832 0.026458,0.1058334 0.079375,0.1322917 0.1322917,0.1322917 0.1058333,0 0.15875,-0.079375 0.15875,-0.2116667 0,-0.7672916 -0.4233333,-1.42875 -0.7672917,-1.7197916 C 3.8570833,1.1054167 3.3808333,1.0260417 3.0897917,1.0525 Z M 5.5239583,1.2906249 C 5.8414583,0.97312501 6.29125,0.84083341 6.7675,0.89375001 v 0.026458 C 6.60875,0.97312501 6.2383333,1.1054164 5.8414583,1.5022913 c -0.3175,0.3439583 -0.5291666,0.7408333 -0.635,1.0847916 -0.1058333,-0.6879166 0.1058334,-1.0847916 0.3175,-1.296458 z"
       id="path2" />
  </g>
</svg>
